Coordinates
version=1
nRows=16
nColumns=40
inDegrees=yes

Units are S.I. units (second, meters, Newtons, ...)
If the header above contains a line with 'inDegrees', this indicates whether rotational values are in degrees (yes) or radians (no).

endheader
time	pelvis_tilt	pelvis_list	pelvis_rotation	pelvis_tx	pelvis_ty	pelvis_tz	hip_flexion_r	hip_adduction_r	hip_rotation_r	knee_angle_r	knee_angle_r_beta	ankle_angle_r	subtalar_angle_r	mtp_angle_r	hip_flexion_l	hip_adduction_l	hip_rotation_l	knee_angle_l	knee_angle_l_beta	ankle_angle_l	subtalar_angle_l	mtp_angle_l	lumbar_extension	lumbar_bending	lumbar_rotation	arm_flex_r	arm_add_r	arm_rot_r	elbow_flex_r	pro_sup_r	wrist_flex_r	wrist_dev_r	arm_flex_l	arm_add_l	arm_rot_l	elbow_flex_l	pro_sup_l	wrist_flex_l	wrist_dev_l
      2.40000000	     -3.41664500	      1.90228505	      4.66581800	     -0.32282432	      0.99454713	     -0.74570148	     12.40467231	      0.84744581	     -8.58607860	     18.44402284	      0.32190893	     -7.13362255	      0.00000000	      0.00000000	     31.84648049	     -0.70507937	     -1.92593400	     13.52965873	      0.23613709	    -18.91976698	      0.00000000	      0.00000000	     -3.63167100	      1.78862829	     -3.98911074	     89.86459222	     -5.88889233	     39.13636492	     28.73948904	     83.45511910	      0.00000000	      0.00000000	     89.83012285	    -12.33612578	     40.94364106	     31.38151514	     85.32982242	      0.00000000	      0.00000000
      2.40500000	     -3.37212351	      1.79131044	      4.69006405	     -0.32308046	      0.99424146	     -0.74550794	     12.48217760	      0.94250162	     -8.88181549	     18.65549242	      0.32559977	     -7.11684379	      0.00000000	      0.00000000	     31.90014645	     -0.75899231	     -2.18478039	     13.35126761	      0.23302358	    -18.55854281	      0.00000000	      0.00000000	     -3.71452902	      1.90679838	     -4.07789992	     89.86579868	     -5.82463687	     39.06725048	     28.79275135	     83.71309128	      0.00000000	      0.00000000	     89.83048528	    -12.45431083	     40.99247304	     31.49426975	     85.27965316	      0.00000000	      0.00000000
      2.41000000	     -3.42905875	      1.94114243	      4.71576837	     -0.32375382	      0.99414429	     -0.74565640	     12.64541078	      0.78966786	     -8.54924011	     18.80526029	      0.32821371	     -6.96704923	      0.00000000	      0.00000000	     32.07480086	     -0.55870891	     -1.76210517	     13.33321363	      0.23270848	    -18.89105494	      0.00000000	      0.00000000	     -3.75252276	      1.75153821	     -4.09658551	     89.86534367	     -5.85307201	     39.05541361	     28.82522149	     83.22775510	      0.00000000	      0.00000000	     89.83186852	    -12.39824274	     40.85965647	     31.47577337	     85.38729948	      0.00000000	      0.00000000
      2.41500000	     -3.45459535	      1.93456023	      4.76130725	     -0.32420927	      0.99387382	     -0.74565568	     12.80121368	      0.76616887	     -8.61269118	     19.02396306	      0.33203079	     -6.86536407	      0.00000000	      0.00000000	     32.23597954	     -0.52098890	     -1.70234658	     13.32733351	      0.23260585	    -18.91434859	      0.00000000	      0.00000000	     -3.79297124	      1.74774490	     -4.13546298	     89.86624945	     -5.87982330	     39.06730524	     28.82795827	     82.96029179	      0.00000000	      0.00000000	     89.83146467	    -12.33224884	     40.62621295	     31.49389888	     85.50654162	      0.00000000	      0.00000000
      2.42000000	     -3.48932039	      1.99638103	      4.72196019	     -0.32462668	      0.99362489	     -0.74558835	     12.96353737	      0.68894205	     -8.53745091	     19.23695691	      0.33574824	     -6.77924329	      0.00000000	      0.00000000	     32.35747099	     -0.44475337	     -1.71505438	     13.23627035	      0.23101650	    -18.90722866	      0.00000000	      0.00000000	     -3.81594077	      1.67619228	     -4.07920853	     89.86660886	     -5.91045285	     38.93266322	     28.87536706	     83.53974801	      0.00000000	      0.00000000	     89.83237984	    -12.33891993	     40.73004134	     31.54281670	     85.32996671	      0.00000000	      0.00000000
      2.42500000	     -3.46031094	      1.94894093	      4.69226701	     -0.32484572	      0.99328111	     -0.74550858	     13.03636854	      0.73210376	     -8.57844664	     19.40606454	      0.33869972	     -6.69671251	      0.00000000	      0.00000000	     32.44244198	     -0.45684072	     -2.06163834	     13.14874858	      0.22948896	    -18.57457053	      0.00000000	      0.00000000	     -3.87773188	      1.73273642	     -4.04210668	     89.86680533	     -5.91665997	     38.93259553	     28.84822698	     83.46340267	      0.00000000	      0.00000000	     89.83404884	    -12.35602124	     40.78715916	     31.58485797	     85.30384234	      0.00000000	      0.00000000
      2.43000000	     -3.54274462	      2.07489853	      4.73908477	     -0.32554729	      0.99312438	     -0.74560850	     13.28035061	      0.55252651	     -8.59310896	     19.65333717	      0.34301544	     -6.64602556	      0.00000000	      0.00000000	     32.65280178	     -0.26764682	     -1.54759031	     13.14460365	      0.22941661	    -18.92007870	      0.00000000	      0.00000000	     -3.88935191	      1.58755391	     -4.13136388	     89.86726864	     -5.92105925	     38.85969346	     28.93210498	     83.51980931	      0.00000000	      0.00000000	     89.83346636	    -12.34486502	     40.58106837	     31.57747940	     85.34555115	      0.00000000	      0.00000000
      2.43500000	     -3.59306769	      2.06195439	      4.76461002	     -0.32589027	      0.99281785	     -0.74564345	     13.43213690	      0.53958171	     -8.64221339	     19.82592357	      0.34602764	     -6.56243856	      0.00000000	      0.00000000	     32.82524109	     -0.24277367	     -1.54058193	     13.14082594	      0.22935068	    -18.94333264	      0.00000000	      0.00000000	     -3.88187696	      1.60988800	     -4.17286072	     89.86699587	     -5.86578027	     38.71355318	     28.86890494	     83.23166341	      0.00000000	      0.00000000	     89.83353427	    -12.37144403	     40.60810943	     31.61151004	     85.41248216	      0.00000000	      0.00000000
      2.44000000	     -3.59210537	      1.98783115	      4.68741326	     -0.32623341	      0.99244653	     -0.74549676	     13.56053677	      0.62324077	     -8.60429070	     20.01844227	      0.34938773	     -6.48073083	      0.00000000	      0.00000000	     32.91737088	     -0.28939691	     -1.81481878	     12.95628083	      0.22612976	    -18.61982628	      0.00000000	      0.00000000	     -3.93420041	      1.68109762	     -4.13297505	     89.86857069	     -5.86839636	     38.73999431	     28.95675501	     83.23482044	      0.00000000	      0.00000000	     89.83525403	    -12.38694189	     40.52530699	     31.58457174	     85.40104090	      0.00000000	      0.00000000
      2.44500000	     -3.65640502	      2.00215521	      4.68278524	     -0.32670521	      0.99213184	     -0.74545389	     13.75536506	      0.58663199	     -8.60289899	     20.21435256	      0.35280701	     -6.40384160	      0.00000000	      0.00000000	     33.14335056	     -0.27646889	     -1.84029729	     13.06348219	      0.22800078	    -18.98116422	      0.00000000	      0.00000000	     -3.92080458	      1.64455537	     -4.03648506	     89.86864060	     -5.98361850	     38.63121047	     28.93673573	     83.61610901	      0.00000000	      0.00000000	     89.83531634	    -12.23913472	     40.45303220	     31.53537690	     85.25269038	      0.00000000	      0.00000000
      2.45000000	     -3.74956119	      2.09876213	      4.70153203	     -0.32732651	      0.99185941	     -0.74550639	     14.01245173	      0.44038894	     -8.59445183	     20.48224793	      0.35748266	     -6.28061270	      0.00000000	      0.00000000	     33.36540831	     -0.12182058	     -1.41705442	     13.02810297	      0.22738329	    -19.12067362	      0.00000000	      0.00000000	     -3.91057762	      1.53873721	     -4.08476133	     89.86875022	     -5.96405354	     38.62705692	     28.94271761	     83.43734060	      0.00000000	      0.00000000	     89.83521569	    -12.27783736	     40.36867209	     31.57879196	     85.34015250	      0.00000000	      0.00000000
      2.45500000	     -3.77513561	      2.09864721	      4.67883364	     -0.32776811	      0.99157636	     -0.74544657	     14.13912150	      0.43381438	     -8.60071649	     20.61363110	      0.35977573	     -6.26238827	      0.00000000	      0.00000000	     33.53987315	     -0.11486587	     -1.45519230	     13.08165512	      0.22831795	    -19.12869061	      0.00000000	      0.00000000	     -3.94036273	      1.52683538	     -4.08282054	     89.86920861	     -5.98725049	     38.57875128	     29.00325951	     83.55251333	      0.00000000	      0.00000000	     89.83509944	    -12.26766247	     40.29946757	     31.61449557	     85.29068269	      0.00000000	      0.00000000
      2.46000000	     -3.78588779	      2.03304098	      4.63776031	     -0.32811549	      0.99123317	     -0.74528913	     14.26653786	      0.49598480	     -8.64610895	     20.79420797	      0.36292739	     -6.20404311	      0.00000000	      0.00000000	     33.65511356	     -0.14807605	     -1.75640049	     12.97432427	      0.22644468	    -18.91323592	      0.00000000	      0.00000000	     -3.97116609	      1.59321562	     -4.05346326	     89.87039360	     -5.97966903	     38.56115143	     29.01970008	     83.47201365	      0.00000000	      0.00000000	     89.83644239	    -12.31700621	     40.42635789	     31.69432711	     84.96268411	      0.00000000	      0.00000000
      2.46500000	     -3.80530305	      2.06315901	      4.59023552	     -0.32863388	      0.99092360	     -0.74523320	     14.40739553	      0.45456072	     -8.64022952	     20.96866079	      0.36597217	     -6.13309693	      0.00000000	      0.00000000	     33.80514133	     -0.09625153	     -1.82249501	     12.95378062	      0.22608612	    -19.03388838	      0.00000000	      0.00000000	     -4.01770776	      1.55597768	     -3.99867511	     89.87080234	     -5.94790602	     38.29938442	     28.95339962	     83.42087073	      0.00000000	      0.00000000	     89.83652403	    -12.28498770	     40.33517218	     31.66931665	     85.23775983	      0.00000000	      0.00000000
      2.47000000	     -3.92425133	      2.10304056	      4.60733368	     -0.32922532	      0.99063401	     -0.74520692	     14.63175295	      0.39200884	     -8.65661895	     21.09443234	      0.36816730	     -6.06049806	      0.00000000	      0.00000000	     34.11020207	     -0.08593113	     -1.47911239	     13.21412599	      0.23063001	    -19.58281453	      0.00000000	      0.00000000	     -3.97105342	      1.48467986	     -4.05932320	     89.87050366	     -5.94220688	     38.28620900	     28.98134788	     83.66882180	      0.00000000	      0.00000000	     89.83643971	    -12.30410779	     40.24191002	     31.67802929	     85.21691758	      0.00000000	      0.00000000
      2.47500000	     -4.16870984	      2.05789753	      4.58717562	     -0.32926861	      0.99003360	     -0.74539520	     14.98787225	      0.38725307	     -8.73165418	     21.28776172	      0.37154153	     -5.95983164	      0.00000000	      0.00000000	     34.45650121	     -0.02779037	     -1.44037633	     13.05195399	      0.22779957	    -19.48743809	      0.00000000	      0.00000000	     -4.55474534	      1.01940913	     -4.38373783	     89.87280428	     -6.59499639	     37.16047975	     30.89165272	     83.74342620	      0.00000000	      0.00000000	     89.85897395	    -12.23216905	     38.05792421	     33.32289711	     84.97788711	      0.00000000	      0.00000000
